<svg width="24" height="24" viewBox="0 0 24 24" fill="none" xmlns="http://www.w3.org/2000/svg">
<path fill-rule="evenodd" clip-rule="evenodd" d="M-2.55544e-07 18.1538C-1.14411e-07 21.3826 2.61741 24 5.84615 24L18.1538 24C21.3826 24 24 21.3826 24 18.1538L24 13.2308C24 10.002 21.3826 7.38461 18.1538 7.38461L17.5385 7.38461C17.0287 7.38461 16.6154 7.79789 16.6154 8.30769C16.6154 8.81749 17.0287 9.23077 17.5385 9.23077L18.1538 9.23077C20.363 9.23077 22.1538 11.0216 22.1538 13.2308L22.1538 18.1538C22.1538 20.363 20.363 22.1538 18.1538 22.1538L5.84615 22.1538C3.63701 22.1538 1.84615 20.363 1.84615 18.1538L1.84615 13.2308C1.84615 11.0216 3.63701 9.23077 5.84615 9.23077L6.46154 9.23077C6.97134 9.23077 7.38462 8.81749 7.38462 8.30769C7.38462 7.79789 6.97134 7.38461 6.46154 7.38461L5.84615 7.38461C2.61741 7.38461 -6.11871e-07 10.002 -4.70738e-07 13.2308L-2.55544e-07 18.1538ZM7.65498 12.6527C7.2945 12.2922 7.2945 11.7078 7.65498 11.3473C8.01546 10.9868 8.59992 10.9868 8.96041 11.3473L11.0769 13.4638L11.0769 0.923076C11.0769 0.413274 11.4902 -5.02253e-07 12 -5.24537e-07C12.5098 -5.46821e-07 12.9231 0.413274 12.9231 0.923076L12.9231 13.4638L15.0396 11.3473C15.4001 10.9868 15.9845 10.9868 16.345 11.3473C16.7055 11.7078 16.7055 12.2922 16.345 12.6527L12.6527 16.345C12.2922 16.7055 11.7078 16.7055 11.3473 16.345L7.65498 12.6527Z" fill="#F3A300"/>
</svg>
