<svg width="140" height="60" viewBox="0 0 140 60" fill="none" xmlns="http://www.w3.org/2000/svg">
<g clip-path="url(#clip0_138_12272)">
<path d="M131.404 20.397V35.1012H131.396L106.072 29.319L114.653 26.489C115.375 26.2443 115.303 25.7389 115.303 25.7389L115.311 18.668H129.638C129.903 18.668 131.404 18.7415 131.404 20.397Z" fill="#DAE8F1"/>
<path d="M115.302 25.7389C115.302 25.7389 115.374 26.2443 114.651 26.489L106.071 29.319L104.891 29.0499L104.883 20.0871C104.883 20.0871 104.883 20.03 104.875 19.9401V19.9077C104.883 19.5407 105.003 18.7007 106.031 18.668H115.31L115.302 25.7389Z" fill="#ECB654"/>
<path d="M115.327 13.6112L115.311 18.6676H106.032C105.005 18.7004 104.884 19.5401 104.876 19.9073V19.9398C104.885 20.0297 104.885 20.0868 104.885 20.0868L104.892 29.0496L103.921 28.8294C102.886 28.8294 102.043 27.9569 102.043 26.8884V14.5247L102.484 14.4678L114.548 12.8855C114.548 12.8855 114.604 12.8691 114.693 12.8691H114.725C114.958 12.8691 115.327 12.9751 115.327 13.6112Z" fill="#AD8D3B"/>
<path d="M131.292 47.2533C131.164 47.5958 130.891 47.9384 130.305 47.9465H130.289C130 47.9465 129.647 47.8649 129.189 47.661L106.137 39.1465H106.129C106.121 39.1385 106.105 39.1385 106.08 39.1304C106.04 39.106 105.968 39.0813 105.88 39.0325C105.78 38.9841 105.684 38.9296 105.591 38.8694C105.483 38.8029 105.383 38.7235 105.294 38.6328C105.221 38.5644 105.157 38.4878 105.101 38.4045C105.051 38.3202 105.006 38.2331 104.965 38.1437C104.957 38.1027 104.941 38.0619 104.933 38.0211L104.909 37.8988C104.901 37.8744 104.893 37.8583 104.901 37.8336V37.7684L104.893 29.7108L106.041 29.3274L106.073 29.3193L131.396 35.1017V46.6252C131.396 46.6252 131.413 46.9351 131.292 47.2533Z" fill="#E2E2E4"/>
<path d="M104.892 29.0499L103.921 28.8297C102.885 28.8297 102.042 27.9572 102.042 26.8887V14.525L98.7593 14.9571C97.8605 15.161 97.7723 15.9766 97.7723 16.2703V16.2867C97.7723 16.3436 97.7802 16.3763 97.7802 16.3763V30.8524C97.7884 31.5373 98.1815 31.7005 98.5427 31.7085H98.599C98.8878 31.7005 99.1368 31.6025 99.1368 31.6025L104.884 29.7106H104.892L106.04 29.327L106.072 29.319L104.892 29.0499ZM2.77667 0C2.01973 0 1.36803 0.279043 0.821333 0.837604C0.2737 1.39616 0 2.069 0 2.85753C0 3.62993 0.2737 4.29471 0.821333 4.85327C1.3678 5.41112 2.0195 5.69087 2.77643 5.69087C3.54853 5.69087 4.2091 5.41112 4.7558 4.85327C5.3032 4.29471 5.5769 3.62993 5.5769 2.85776C5.5769 2.069 5.3032 1.39616 4.75557 0.837604C4.20933 0.279043 3.54877 0 2.77667 0Z" fill="#F5A300"/>
<path d="M138.122 0.0410156H103.921C102.885 0.0410156 102.043 0.913471 102.043 1.98175V14.525L102.484 14.4681L114.548 12.8858C114.548 12.8858 114.604 12.8694 114.693 12.8694H114.725C114.957 12.8694 115.327 12.9754 115.327 13.6115L115.31 18.6679H129.638C129.903 18.6679 131.404 18.7414 131.404 20.397V35.1094L138.066 36.6263C139.101 36.6263 139.952 35.7538 139.952 34.6853L140 1.98175C140 0.913471 139.157 0.0410156 138.122 0.0410156ZM4.48513 11.0361H1.0906V37.8389H4.48467L4.48513 11.0361ZM18.3412 22.5899C16.268 21.507 14.9065 20.5624 14.2588 19.7575C13.611 18.969 13.2876 18.1404 13.2876 17.2694C13.2876 16.2834 13.6801 15.4221 14.4667 14.6824C15.2518 13.9436 16.1964 13.5743 17.2984 13.5743C19.0321 13.5743 20.8061 14.4688 22.6217 16.259L24.8043 13.9681C22.3431 11.5543 19.8982 10.3462 17.4692 10.3462C15.3809 10.3462 13.6526 11.0207 12.2841 12.367C10.9156 13.7137 10.2326 15.405 10.2326 17.4415C10.2326 19.0024 10.6612 20.3896 11.5199 21.6046C12.3788 22.8209 13.9979 24.0523 16.3802 25.3007C18.5985 26.4501 20.0242 27.4024 20.6565 28.1575C21.2875 28.9299 21.6039 29.8083 21.6039 30.7936C21.6039 31.994 21.1255 33.0364 20.1693 33.9228C19.2134 34.8102 18.0553 35.2529 16.6948 35.2529C14.7499 35.2529 12.9117 34.2595 11.1781 32.2721L9.04377 34.736C9.95073 35.9186 11.0962 36.8475 12.4798 37.5194C13.8635 38.1931 15.3165 38.5298 16.8392 38.5298C19.1219 38.5298 21.0233 37.7664 22.5451 36.2389C24.0672 34.7114 24.8288 32.8472 24.8288 30.6462C24.8288 29.0867 24.3826 27.6822 23.4918 26.4337C22.5855 25.2021 20.8679 23.9209 18.3412 22.5899ZM48.486 37.6313C50.0222 37.031 51.4059 36.1576 52.6349 35.0077C53.8652 33.8579 54.9488 32.3465 55.8873 30.474L53.0266 28.9465C51.9911 30.6974 51.0279 31.9648 50.137 32.7503C49.2469 33.5355 48.1672 34.1651 46.8974 34.6398C45.6423 35.1115 44.3147 35.3525 42.9765 35.3517C40.1928 35.3517 37.8539 34.356 35.9604 32.3645C34.0671 30.3745 33.0878 27.8225 33.0237 24.709H56.7607C56.7275 21.0461 55.7573 17.992 53.8477 15.5446C51.1628 12.0792 47.5711 10.3464 43.0736 10.3464C38.7046 10.3464 35.2189 12.0387 32.6142 15.4214C30.5585 18.0819 29.5318 21.1125 29.5318 24.5115C29.5318 28.1253 30.7456 31.3645 33.1721 34.2303C35.5992 37.0971 38.9641 38.5291 43.2679 38.5291C45.2088 38.5291 46.9481 38.2299 48.486 37.6313ZM36.446 16.185C38.3066 14.4934 40.5323 13.6478 43.1216 13.6478C44.691 13.6478 46.1879 13.9844 47.6126 14.6572C49.0366 15.3317 50.1818 16.2182 51.0473 17.3185C51.9141 18.4185 52.5733 19.8891 53.0266 21.7282H33.3632C34.059 19.2642 35.0861 17.4173 36.446 16.185ZM86.6103 14.4614C83.947 11.7184 80.7413 10.3469 76.996 10.3469C74.8482 10.3469 72.9024 10.8139 71.1576 11.7511C69.4134 12.6876 67.8715 14.0911 66.5317 15.9636V11.037H63.1367V47.6453H66.5317V33.2329C67.9527 34.9921 69.5427 36.314 71.3029 37.1998C73.063 38.0869 74.9926 38.5298 77.0915 38.5298C80.8215 38.5298 84.0082 37.1547 86.6481 34.4032C89.2871 31.653 90.6082 28.3062 90.6082 24.3647C90.6082 20.5055 89.2752 17.2042 86.6103 14.4614ZM85.7369 29.8889C84.7859 31.6113 83.5081 32.953 81.9028 33.9112C80.2991 34.8719 78.5853 35.3522 76.7641 35.3522C74.9091 35.3522 73.1474 34.8759 71.4779 33.9243C69.8091 32.9724 68.5256 31.6855 67.6314 30.0611C66.7357 28.4371 66.2886 26.608 66.2886 24.5741C66.2886 21.4731 67.2926 18.8815 69.3002 16.7978C71.3085 14.7139 73.7791 13.6727 76.7151 13.6727C78.6014 13.6727 80.3439 14.1447 81.9404 15.0875C83.5361 16.0311 84.8059 17.3557 85.7498 19.0624C86.6922 20.7677 87.1656 22.5726 87.1656 24.4752C87.1656 26.3624 86.6889 28.1665 85.7369 29.8889ZM0.000233333 58.1321H3.60897V57.5017H0.6335V54.9696H3.60897V54.3383H0.6335V52.3188H3.63557V51.6877H0L0.000233333 58.1321ZM1.80227 51.1797L3.0744 49.829H2.14737L1.2075 51.1797H1.80227ZM7.014 53.821C7.72917 53.821 8.29337 54.1007 8.70683 54.6569L9.18517 54.3558C9.0447 54.1154 8.87367 53.9189 8.67137 53.7648C8.4707 53.609 8.22593 53.4843 7.93707 53.3878C7.64691 53.2911 7.3434 53.2421 7.03803 53.2427C6.54267 53.2427 6.0956 53.3537 5.69683 53.5756C5.30476 53.7908 4.97866 54.1116 4.7544 54.5028C4.52736 54.892 4.40887 55.3366 4.41163 55.789C4.41163 56.4749 4.6557 57.0581 5.1443 57.5367C5.63337 58.0145 6.2489 58.2551 6.99067 58.2551C7.47297 58.2551 7.90417 58.1598 8.28123 57.9713C8.66017 57.7821 8.96117 57.5161 9.18517 57.1721L8.70683 56.8532C8.27003 57.4111 7.70653 57.6901 7.01797 57.6901C6.6416 57.6901 6.3028 57.6053 5.99947 57.4365C5.70085 57.2704 5.45349 57.0234 5.285 56.7228C5.11325 56.4253 5.02317 56.0865 5.02413 55.7416C5.02413 55.2081 5.21267 54.7541 5.58997 54.3812C5.96797 54.0071 6.44233 53.821 7.014 53.821ZM12.5659 53.243C11.8393 53.243 11.2399 53.5097 10.7639 54.0438C10.3322 54.5299 10.1162 55.1024 10.1162 55.7629C10.1162 56.4284 10.3448 57.01 10.8015 57.5083C11.2574 58.0066 11.8459 58.2551 12.5659 58.2551C13.2825 58.2551 13.8693 58.0066 14.3253 57.5083C14.7819 57.01 15.0108 56.4284 15.0108 55.7629C15.0108 55.0984 14.7947 54.5258 14.3631 54.0405C13.8871 53.5088 13.2883 53.243 12.5659 53.243ZM14.1519 56.7392C13.9874 57.0367 13.765 57.2679 13.4848 57.4284C13.2055 57.5915 12.8982 57.6721 12.5634 57.6721C12.2285 57.6721 11.9212 57.5915 11.6419 57.4284C11.3619 57.2677 11.1396 57.0367 10.9751 56.7392C10.8119 56.4451 10.7269 56.1129 10.7284 55.7752C10.7284 55.2411 10.9093 54.7842 11.2695 54.4085C11.6298 54.0308 12.0617 53.8433 12.5634 53.8433C13.0627 53.8433 13.493 54.0306 13.8549 54.4085C14.2177 54.7842 14.3983 55.2411 14.3983 55.7752C14.3983 56.1202 14.3157 56.4414 14.1519 56.7392ZM16.0368 58.1316H16.6411V51.5249H16.0368V58.1316ZM21.9914 54.1678C21.5138 53.5514 20.8749 53.2432 20.0755 53.2432C19.2978 53.2432 18.6779 53.5441 18.2149 54.1458C17.8498 54.6188 17.6666 55.1572 17.6666 55.7622C17.6666 56.4047 17.8827 56.9815 18.3143 57.4905C18.7455 58.0009 19.3443 58.2553 20.1101 58.2553C20.4552 58.2553 20.7641 58.2015 21.0378 58.0955C21.3104 57.9885 21.5607 57.8303 21.7756 57.629C21.9947 57.4244 22.1872 57.156 22.3543 56.8217L21.8454 56.551C21.6615 56.8615 21.4898 57.0875 21.3316 57.2278C21.1736 57.3665 20.9816 57.4798 20.7552 57.5638C20.5289 57.647 20.297 57.6901 20.0578 57.6901C19.5627 57.6901 19.1469 57.5133 18.8104 57.1577C18.4735 56.8054 18.2994 56.3502 18.288 55.7973H22.509C22.5036 55.1465 22.3309 54.6034 21.9914 54.1678ZM18.3482 55.2672C18.4718 54.8293 18.6548 54.5007 18.8965 54.2812C19.2278 53.9803 19.6236 53.8302 20.0835 53.8302C20.3628 53.8302 20.6295 53.8897 20.8829 54.0088C21.1358 54.1287 21.3397 54.2878 21.493 54.482C21.648 54.6776 21.7651 54.9402 21.8454 55.2672H18.3482ZM30.1672 54.2423C29.9315 53.9087 29.6576 53.6584 29.3461 53.4929C29.0339 53.3264 28.6858 53.2425 28.3003 53.2425C27.6334 53.2425 27.0627 53.4862 26.5883 53.9749C26.114 54.4632 25.8771 55.0488 25.8771 55.7356C25.8771 56.436 26.1114 57.0322 26.5818 57.5216C27.0522 58.01 27.619 58.2549 28.2828 58.2549C28.6566 58.2549 29.001 58.1757 29.3158 58.019C29.631 57.8608 29.9145 57.6259 30.1674 57.3144V58.1332H30.7629V51.5258H30.1672V54.2423ZM29.9675 56.7485C29.8076 57.0379 29.5806 57.2672 29.2845 57.4367C28.9891 57.6048 28.676 57.6904 28.346 57.6904C28.0221 57.6914 27.7041 57.6025 27.4262 57.4334C27.1404 57.2632 26.9124 57.0242 26.7433 56.7183C26.5739 56.4125 26.4894 56.091 26.4894 55.7541C26.4894 55.4165 26.5739 55.097 26.7414 54.7928C26.9094 54.4893 27.1357 54.2537 27.4197 54.0872C27.7017 53.9192 28.0231 53.8319 28.35 53.8345C28.8727 53.8345 29.3125 54.0204 29.6697 54.3907C30.0277 54.761 30.2066 55.2226 30.2066 55.7729C30.2066 56.1351 30.1264 56.4604 29.9675 56.7485ZM32.5439 52.7295H32.9229C32.9058 52.9286 32.8785 53.0915 32.8417 53.2171C32.8039 53.3411 32.7308 53.5163 32.6219 53.7382L32.9532 53.9308C33.1002 53.6354 33.1982 53.381 33.2486 53.1666C33.2983 52.9521 33.3242 52.656 33.3242 52.2793V51.5256H32.5439V52.7295ZM35.1393 58.1325H35.7436V53.3648H35.1393V58.1325ZM35.4387 51.4018C35.3047 51.4018 35.189 51.4523 35.091 51.5512C34.9939 51.6505 34.9449 51.7702 34.9449 51.9106C34.9449 52.0483 34.9939 52.1676 35.0912 52.2662C35.1892 52.3648 35.3047 52.4139 35.4387 52.4139C35.5042 52.415 35.5693 52.4025 35.6299 52.3771C35.6904 52.3517 35.7453 52.3139 35.791 52.2662C35.8379 52.2202 35.8751 52.1649 35.9002 52.1037C35.9253 52.0426 35.9379 51.9769 35.9371 51.9106C35.9371 51.7702 35.8881 51.6505 35.791 51.5509C35.7454 51.503 35.6906 51.465 35.63 51.4393C35.5694 51.4136 35.5043 51.401 35.4387 51.4018ZM40.2948 53.5137C40.0234 53.3336 39.7119 53.243 39.3615 53.243C39.0161 53.243 38.6974 53.3236 38.4036 53.4853C38.1108 53.6491 37.8436 53.8931 37.6019 54.2193V53.3653H36.9983V58.133H37.6019V56.3838C37.6019 55.7565 37.6308 55.3236 37.6885 55.087C37.7799 54.7257 37.9703 54.4215 38.2592 54.1761C38.549 53.9305 38.8757 53.8082 39.2408 53.8082C39.5605 53.8082 39.8188 53.8881 40.0171 54.0472C40.2155 54.206 40.3501 54.4436 40.4192 54.7591C40.4642 54.9426 40.4866 55.3089 40.4866 55.8585V58.133H41.0902V55.6799C41.0902 55.0299 41.0261 54.5538 40.8966 54.2461C40.7727 53.9462 40.5632 53.691 40.2948 53.5137ZM46.4284 54.1932C46.1468 53.8542 45.8537 53.6126 45.5495 53.4642C45.2471 53.3158 44.9188 53.2425 44.5681 53.2425C44.145 53.2425 43.7428 53.3539 43.3617 53.5758C42.9881 53.7895 42.6785 54.1021 42.4657 54.4803C42.2518 54.8551 42.1402 55.2811 42.1423 55.7143C42.1423 56.1548 42.2459 56.56 42.4529 56.9279C42.6601 57.2949 42.9539 57.5884 43.3335 57.8063C43.704 58.0216 44.1236 58.1343 44.5503 58.1332C44.9188 58.1332 45.2671 58.0541 45.5954 57.8985C45.9215 57.7438 46.207 57.513 46.4284 57.2247V57.4711C46.4284 57.9969 46.3682 58.3762 46.2471 58.6119C46.1267 58.8476 45.9235 59.045 45.6412 59.1999C45.357 59.3566 45.0093 59.4341 44.5977 59.4341C44.18 59.4341 43.8312 59.3573 43.5486 59.2065C43.2668 59.0548 43.0365 58.8208 42.8582 58.5059H42.2025C42.3719 58.8803 42.5572 59.165 42.7588 59.3589C42.9595 59.5548 43.221 59.7098 43.5414 59.8255C43.8615 59.9405 44.2237 60 44.6257 60C45.1754 60 45.6451 59.88 46.036 59.6444C46.4268 59.408 46.7014 59.0704 46.8596 58.6316C46.9742 58.3224 47.0321 57.8331 47.0321 57.1643V53.3656H46.4284V54.1932ZM45.9517 57.0462C45.6139 57.3845 45.1675 57.555 44.6129 57.555C44.0638 57.555 43.6168 57.3845 43.2717 57.042C42.9263 56.7003 42.7548 56.2672 42.7548 55.7444C42.7548 55.4004 42.8381 55.0789 43.0045 54.7831C43.1667 54.4907 43.4057 54.2498 43.6947 54.0872C43.9849 53.9193 44.3135 53.8322 44.6474 53.8345C44.9696 53.8333 45.2865 53.9179 45.5665 54.0799C45.8505 54.2439 46.0705 54.4658 46.2254 54.748C46.3811 55.0301 46.4588 55.3497 46.4588 55.7093C46.4588 56.2617 46.2896 56.7067 45.9517 57.0462ZM50.4775 52.4793L51.7496 51.1304H50.8226L49.8827 52.4793H50.4775ZM52.4223 54.1674C51.9447 53.551 51.3049 53.2427 50.5055 53.2427C49.7285 53.2427 49.109 53.5438 48.6449 54.1455C48.2797 54.6185 48.0975 55.1567 48.0975 55.762C48.0975 56.4044 48.3126 56.9813 48.7445 57.491C49.1762 58.0007 49.7751 58.2551 50.54 58.2551C50.8853 58.2551 51.195 58.202 51.468 58.0944C51.741 57.9883 51.9916 57.8303 52.2062 57.6287C52.4246 57.4241 52.6174 57.1548 52.7842 56.8222L52.2755 56.5505C52.0914 56.8613 51.9197 57.0872 51.7617 57.2274C51.6035 57.366 51.4117 57.4794 51.1854 57.5635C50.9622 57.6467 50.7264 57.6895 50.4887 57.6899C49.9933 57.6899 49.5768 57.513 49.2403 57.1588C48.9043 56.8042 48.7293 56.3516 48.7179 55.798H52.9401C52.9342 55.146 52.762 54.6019 52.4223 54.1674ZM48.7781 55.2669C48.9018 54.8291 49.0847 54.5002 49.3271 54.2807C49.658 53.9801 50.0535 53.83 50.5143 53.83C50.7929 53.83 51.0594 53.8902 51.313 54.0102C51.5657 54.1292 51.7697 54.2876 51.9239 54.4832C52.0779 54.678 52.195 54.9398 52.2753 55.2669H48.7781ZM57.3617 53.5137C57.0906 53.3336 56.7791 53.243 56.4284 53.243C56.0831 53.243 55.7646 53.3236 55.4708 53.4853C55.1777 53.6491 54.9106 53.8931 54.6688 54.2193V53.3653H54.0652V58.133H54.6688V56.3838C54.6688 55.7565 54.6978 55.3236 54.7556 55.087C54.8471 54.7257 55.0373 54.4215 55.3264 54.1761C55.6162 53.9305 55.9428 53.8082 56.308 53.8082C56.6274 53.8082 56.8857 53.8881 57.0841 54.0472C57.2824 54.206 57.4173 54.4436 57.4861 54.7591C57.5311 54.9426 57.5538 55.3089 57.5538 55.8585V58.133H58.1572V55.6799C58.1572 55.0299 58.093 54.5538 57.9637 54.2461C57.8399 53.9462 57.6301 53.691 57.3617 53.5137ZM59.6605 51.4018C59.5257 51.4018 59.4092 51.4523 59.3122 51.5512C59.2149 51.6505 59.1661 51.7702 59.1661 51.9106C59.1661 52.0483 59.2151 52.1676 59.3122 52.2662C59.4092 52.3648 59.5257 52.4139 59.6605 52.4139C59.7968 52.4139 59.9149 52.3648 60.0119 52.2662C60.0589 52.2202 60.096 52.1649 60.1211 52.1037C60.1463 52.0426 60.1588 51.9769 60.158 51.9106C60.158 51.7702 60.109 51.6505 60.0119 51.5509C59.9664 51.5031 59.9118 51.4651 59.8514 51.4395C59.791 51.4138 59.726 51.4011 59.6605 51.4018ZM59.3602 58.1325H59.9646V53.3648H59.3602V58.1325ZM65.3149 54.1678C64.8373 53.5514 64.1984 53.2432 63.399 53.2432C62.6213 53.2432 62.0013 53.5441 61.5384 54.1458C61.1732 54.6188 60.9901 55.1572 60.9901 55.7622C60.9901 56.4047 61.2061 56.9815 61.638 57.4905C62.069 58.0009 62.6677 58.2553 63.4335 58.2553C63.7789 58.2553 64.0876 58.2015 64.3613 58.0955C64.6339 57.9885 64.8842 57.8303 65.0991 57.629C65.3182 57.4244 65.5107 57.156 65.6777 56.8217L65.1691 56.551C64.985 56.8615 64.8132 57.0875 64.6553 57.2278C64.4971 57.3665 64.3053 57.4798 64.0789 57.5638C63.8526 57.647 63.6204 57.6901 63.3813 57.6901C62.8861 57.6901 62.4703 57.5133 62.1341 57.1577C61.7969 56.8054 61.6226 56.3502 61.6114 55.7973H65.8324C65.8271 55.1465 65.6544 54.6034 65.3149 54.1678ZM61.6716 55.2672C61.7953 54.8293 61.9782 54.5007 62.22 54.2812C62.5513 53.9803 62.947 53.8302 63.4069 53.8302C63.6862 53.8302 63.952 53.8897 64.2066 54.0088C64.4593 54.1287 64.6632 54.2878 64.8165 54.482C64.9714 54.6776 65.0886 54.9402 65.1688 55.2672H61.6716ZM70.3691 55.591C70.3691 56.188 70.3395 56.577 70.2793 56.7613C70.1921 57.0265 70.0211 57.2551 69.7928 57.4113C69.5583 57.5768 69.2727 57.6603 68.9355 57.6603C68.5984 57.6603 68.3088 57.5744 68.0654 57.4047C67.8223 57.2359 67.6578 57.0052 67.571 56.7124C67.5131 56.5085 67.4851 56.1349 67.4851 55.591V53.3653H66.8808V55.6612C66.8808 56.3388 66.9562 56.8461 67.1071 57.1837C67.2581 57.5213 67.4868 57.784 67.7927 57.9725C68.0993 58.1617 68.4805 58.2553 68.9381 58.2553C69.3947 58.2553 69.7751 58.1617 70.0777 57.9725C70.3779 57.788 70.6158 57.5151 70.76 57.1901C70.9109 56.8575 70.9856 56.3618 70.9856 55.7051V53.3653H70.3691V55.591ZM73.2972 53.4469C73.0933 53.5822 72.8992 53.7878 72.7153 54.0619V53.3653H72.0979V58.133H72.7153V56.5199C72.7153 55.6937 72.7522 55.1448 72.8268 54.8724C72.9239 54.5185 73.0669 54.2591 73.2538 54.0903C73.4417 53.9232 73.6358 53.8383 73.8365 53.8383C73.9216 53.8383 74.0292 53.866 74.1552 53.9215L74.47 53.4054C74.2805 53.2968 74.1013 53.243 73.9354 53.243C73.7137 53.243 73.5012 53.3117 73.2972 53.4469ZM76.1927 55.421C75.8233 55.2278 75.5818 55.059 75.4661 54.917C75.3522 54.7769 75.2934 54.6282 75.2934 54.4741C75.2934 54.2987 75.3634 54.1455 75.5046 54.0135C75.6427 53.8831 75.8105 53.816 76.0062 53.816C76.3154 53.816 76.6309 53.9751 76.9536 54.294L77.3418 53.8862C76.9036 53.458 76.4694 53.2427 76.0375 53.2427C75.666 53.2427 75.3585 53.3618 75.1163 53.6024C74.8729 53.8414 74.75 54.1415 74.75 54.5052C74.75 54.7826 74.8265 55.028 74.9798 55.2449C75.1315 55.4618 75.4196 55.6797 75.8434 55.903C76.2382 56.1069 76.492 56.2767 76.6043 56.4104C76.7167 56.5481 76.773 56.7039 76.773 56.8793C76.773 57.0927 76.6885 57.2788 76.5177 57.4365C76.3483 57.5929 76.1427 57.6728 75.8994 57.6728C75.5536 57.6728 75.2269 57.4957 74.918 57.1418L74.539 57.5799C74.7018 57.7916 74.9113 57.9614 75.1506 58.0756C75.3922 58.1938 75.6571 58.2548 75.9253 58.2542C76.3313 58.2542 76.6694 58.119 76.9398 57.8473C77.2105 57.5766 77.3467 57.2437 77.3467 56.8532C77.3467 56.5759 77.2674 56.3262 77.1085 56.1036C76.947 55.885 76.6411 55.656 76.1927 55.421ZM84.9441 54.2423C84.7089 53.9087 84.4352 53.6584 84.1227 53.4929C83.8108 53.3264 83.4624 53.2425 83.0769 53.2425C82.4101 53.2425 81.8393 53.4862 81.365 53.9749C80.8913 54.4632 80.6538 55.0488 80.6538 55.7356C80.6538 56.436 80.889 57.0322 81.3584 57.5216C81.8288 58.01 82.3963 58.2549 83.0601 58.2549C83.4342 58.2549 83.7786 58.1757 84.0931 58.019C84.4079 57.8608 84.6918 57.6259 84.9441 57.3144V58.1332H85.5395V51.5258H84.9441V54.2423ZM84.745 56.7485C84.5845 57.0379 84.3572 57.2672 84.0611 57.4367C83.7657 57.6048 83.4526 57.6904 83.1227 57.6904C82.799 57.6914 82.4813 57.6026 82.2038 57.4334C81.9173 57.2632 81.6893 57.0242 81.5199 56.7183C81.3512 56.4125 81.2663 56.091 81.2663 55.7541C81.2663 55.4165 81.3505 55.097 81.5183 54.7928C81.686 54.4893 81.9114 54.2537 82.1966 54.0872C82.4785 53.9192 82.8 53.8319 83.1269 53.8345C83.6502 53.8345 84.0891 54.0204 84.4471 54.3907C84.8043 54.761 84.9833 55.2226 84.9833 55.7729C84.9833 56.1351 84.903 56.4604 84.745 56.7485ZM90.3163 55.591C90.3163 56.188 90.2867 56.577 90.2265 56.7613C90.14 57.0266 89.9692 57.2552 89.7409 57.4113C89.5057 57.5768 89.2199 57.6603 88.8837 57.6603C88.5465 57.6603 88.2569 57.5744 88.0136 57.4047C87.7704 57.2359 87.6059 57.0052 87.5191 56.7124C87.4613 56.5085 87.4326 56.1349 87.4326 55.591V53.3653H86.8289V55.6612C86.8289 56.3388 86.9052 56.8461 87.0553 57.1837C87.2062 57.5213 87.434 57.784 87.7408 57.9725C88.0481 58.1617 88.4287 58.2553 88.8853 58.2553C89.3426 58.2553 89.7216 58.1617 90.0258 57.9725C90.3292 57.784 90.5564 57.523 90.7081 57.1901C90.8591 56.8575 90.9337 56.3618 90.9337 55.7051V53.3653H90.3163V55.591ZM98.0163 53.5137C97.745 53.3336 97.4337 53.243 97.083 53.243C96.7377 53.243 96.4189 53.3236 96.1261 53.4853C95.833 53.6491 95.5649 53.8931 95.3251 54.2193V53.3653H94.7198V58.133H95.3251V56.3838C95.3251 55.7565 95.3531 55.3236 95.41 55.087C95.5024 54.7257 95.6935 54.4215 95.9817 54.1761C96.2705 53.9305 96.5979 53.8082 96.9633 53.8082C97.2818 53.8082 97.5403 53.8881 97.7394 54.0472C97.9368 54.206 98.0716 54.4436 98.1423 54.7591C98.1857 54.9426 98.2081 55.3089 98.2081 55.8585V58.133H98.8118V55.6799C98.8118 55.0299 98.7483 54.5538 98.6183 54.2461C98.4942 53.9463 98.2845 53.6913 98.0163 53.5137ZM103.516 55.591C103.516 56.188 103.487 56.577 103.425 56.7613C103.337 57.0296 103.174 57.2473 102.941 57.4113C102.706 57.5768 102.419 57.6603 102.084 57.6603C101.746 57.6603 101.456 57.5744 101.213 57.4047C100.97 57.2359 100.804 57.0052 100.718 56.7124C100.661 56.5085 100.632 56.1349 100.632 55.591V53.3653H100.028V55.6612C100.028 56.3388 100.104 56.8461 100.255 57.1837C100.406 57.5213 100.633 57.784 100.941 57.9725C101.247 58.1617 101.629 58.2553 102.085 58.2553C102.543 58.2553 102.921 58.1617 103.225 57.9725C103.525 57.7878 103.763 57.515 103.908 57.1901C104.058 56.8575 104.133 56.3618 104.133 55.7051V53.3653H103.516V55.591ZM111.753 53.4926C111.505 53.3262 111.218 53.243 110.895 53.243C110.547 53.243 110.224 53.3402 109.922 53.5341C109.621 53.7283 109.37 54.0121 109.169 54.3864C109.073 54.106 108.963 53.8914 108.832 53.7397C108.703 53.5896 108.535 53.4689 108.332 53.3784C108.127 53.2881 107.907 53.2421 107.684 53.2432C107.348 53.2432 107.026 53.3369 106.722 53.523C106.499 53.6629 106.285 53.885 106.075 54.1892V53.3653H105.47V58.133H106.075V56.1121C106.075 55.5175 106.132 55.0747 106.248 54.7845C106.365 54.4964 106.544 54.2658 106.788 54.0962C107.031 53.9248 107.292 53.8383 107.57 53.8383C107.812 53.8383 108.02 53.9004 108.196 54.0251C108.368 54.1452 108.497 54.319 108.564 54.5201C108.634 54.7257 108.669 55.1164 108.669 55.692V58.133H109.274V56.2662C109.274 55.583 109.329 55.0951 109.44 54.8023C109.553 54.5107 109.731 54.2764 109.972 54.1019C110.214 53.9265 110.481 53.8383 110.773 53.8383C111.014 53.8383 111.221 53.8971 111.395 54.0137C111.563 54.124 111.692 54.286 111.762 54.476C111.834 54.6669 111.869 55.0185 111.869 55.5299V58.133H112.486V55.5299C112.486 54.9346 112.426 54.4867 112.307 54.1892C112.185 53.8914 112.001 53.6591 111.753 53.4926ZM116.255 51.1304L115.314 52.4793H115.909L117.181 51.1304H116.255ZM117.853 54.1674C117.376 53.551 116.737 53.2427 115.937 53.2427C115.161 53.2427 114.541 53.5438 114.077 54.1455C113.712 54.6185 113.529 55.1567 113.529 55.762C113.529 56.4044 113.744 56.9813 114.176 57.491C114.608 58.0007 115.206 58.2551 115.972 58.2551C116.317 58.2551 116.627 58.202 116.9 58.0944C117.173 57.9887 117.424 57.8306 117.638 57.6287C117.856 57.4241 118.049 57.1548 118.216 56.8222L117.707 56.5505C117.523 56.8613 117.352 57.0872 117.194 57.2274C117.036 57.366 116.843 57.4794 116.617 57.5635C116.394 57.6468 116.159 57.6896 115.921 57.6899C115.426 57.6899 115.01 57.513 114.672 57.1588C114.336 56.8042 114.163 56.3516 114.15 55.798H118.372C118.365 55.146 118.193 54.6019 117.853 54.1674ZM114.21 55.2669C114.334 54.8291 114.517 54.5002 114.76 54.2807C115.091 53.9801 115.486 53.83 115.946 53.83C116.225 53.83 116.492 53.8902 116.745 54.0102C116.998 54.1292 117.202 54.2876 117.356 54.4832C117.51 54.678 117.627 54.9398 117.707 55.2669H114.21ZM120.467 53.4469C120.263 53.5822 120.069 53.7878 119.885 54.0619V53.3653H119.268V58.133H119.885V56.5199C119.885 55.6937 119.922 55.1448 119.997 54.8724C120.094 54.5185 120.237 54.2591 120.424 54.0903C120.612 53.9232 120.806 53.8383 121.007 53.8383C121.092 53.8383 121.199 53.866 121.325 53.9215L121.64 53.4054C121.451 53.2968 121.271 53.243 121.106 53.243C120.883 53.243 120.671 53.3117 120.467 53.4469ZM122.362 51.4018C122.228 51.4018 122.112 51.4523 122.015 51.5512C121.918 51.6505 121.869 51.7702 121.869 51.9106C121.869 52.0483 121.918 52.1676 122.015 52.2662C122.06 52.3137 122.114 52.3513 122.174 52.3767C122.233 52.4021 122.298 52.4148 122.363 52.4139C122.5 52.4139 122.617 52.3648 122.716 52.2662C122.762 52.22 122.799 52.1647 122.824 52.1036C122.849 52.0424 122.862 51.9768 122.861 51.9106C122.861 51.7702 122.812 51.6505 122.716 51.5509C122.67 51.5031 122.615 51.4652 122.554 51.4395C122.493 51.4138 122.428 51.4012 122.362 51.4018ZM122.063 58.1325H122.667V53.3648H122.063V58.1325ZM127.996 54.242C127.761 53.9087 127.487 53.6584 127.174 53.4929C126.864 53.3264 126.514 53.2425 126.129 53.2425C125.462 53.2425 124.891 53.4862 124.417 53.9749C123.943 54.4632 123.706 55.0488 123.706 55.7356C123.706 56.436 123.941 57.0322 124.41 57.5216C124.881 58.01 125.448 58.2549 126.112 58.2549C126.486 58.2549 126.83 58.1757 127.145 58.019C127.46 57.8608 127.743 57.6259 127.996 57.3144V59.877H128.591V53.3656H127.996V54.242ZM127.797 56.7485C127.636 57.0379 127.409 57.2672 127.113 57.4367C126.818 57.6048 126.504 57.6904 126.175 57.6904C125.851 57.6914 125.533 57.6026 125.256 57.4334C124.969 57.2632 124.741 57.0242 124.572 56.7183C124.403 56.4125 124.318 56.091 124.318 55.7541C124.318 55.4165 124.402 55.097 124.57 54.7928C124.738 54.4893 124.964 54.2537 125.248 54.0872C125.53 53.9192 125.852 53.8319 126.179 53.8345C126.702 53.8345 127.141 54.0204 127.499 54.3907C127.856 54.761 128.035 55.2226 128.035 55.7729C128.035 56.1351 127.955 56.4604 127.797 56.7485ZM133.356 55.591C133.356 56.188 133.326 56.577 133.265 56.7613C133.177 57.0296 133.014 57.2473 132.78 57.4113C132.545 57.5768 132.258 57.6603 131.923 57.6603C131.586 57.6603 131.296 57.5744 131.053 57.4047C130.81 57.2359 130.644 57.0052 130.559 56.7124C130.501 56.5085 130.471 56.1349 130.471 55.591V53.3653H129.868V55.6612C129.868 56.3388 129.944 56.8461 130.095 57.1837C130.245 57.5213 130.473 57.784 130.78 57.9725C131.087 58.1617 131.468 58.2553 131.925 58.2553C132.382 58.2553 132.761 58.1617 133.064 57.9725C133.365 57.7878 133.603 57.515 133.747 57.1901C133.898 56.8575 133.973 56.3618 133.973 55.7051V53.3653H133.356V55.591ZM139.41 54.1678C138.932 53.5514 138.294 53.2432 137.494 53.2432C136.717 53.2432 136.097 53.5441 135.634 54.1458C135.268 54.6188 135.085 55.1572 135.085 55.7622C135.085 56.4047 135.302 56.9815 135.733 57.4905C136.165 58.0009 136.763 58.2553 137.527 58.2553C137.874 58.2553 138.182 58.2015 138.457 58.0955C138.729 57.9883 138.98 57.8301 139.195 57.629C139.413 57.4244 139.606 57.156 139.773 56.8217L139.264 56.551C139.079 56.8615 138.909 57.0875 138.75 57.2278C138.592 57.3665 138.399 57.4798 138.174 57.5638C137.95 57.6469 137.714 57.6897 137.476 57.6901C136.981 57.6901 136.566 57.5133 136.229 57.1577C135.892 56.8054 135.718 56.3502 135.706 55.7973H139.927C139.922 55.1465 139.749 54.6034 139.41 54.1678ZM135.767 55.2672C135.891 54.8293 136.073 54.5007 136.315 54.2812C136.646 53.9803 137.042 53.8302 137.502 53.8302C137.781 53.8302 138.047 53.8897 138.301 54.0088C138.554 54.1287 138.758 54.2878 138.912 54.482C139.067 54.6776 139.183 54.9402 139.264 55.2672H135.767Z" fill="#005FA1"/>
</g>
<defs>
<clipPath id="clip0_138_12272">
<rect width="140" height="60" fill="white"/>
</clipPath>
</defs>
</svg>
